<?xml version="1.0" standalone="no"?>
<!DOCTYPE svg PUBLIC "-//W3C//DTD SVG 20010904//EN"
 "http://www.w3.org/TR/2001/REC-SVG-20010904/DTD/svg10.dtd">
<svg version="1.0" xmlns="http://www.w3.org/2000/svg"
 width="665.000000pt" height="375.000000pt" viewBox="0 0 665.000000 375.000000"
 preserveAspectRatio="xMidYMid meet">

<g transform="translate(0.000000,375.000000) scale(0.100000,-0.100000)"
fill="#000000" stroke="none">
<path d="M3650 3010 c-380 -19 -591 -41 -808 -85 -149 -30 -187 -44 -264 -96
-100 -67 -229 -160 -286 -206 -41 -34 -58 -42 -77 -37 -35 9 -127 -23 -169
-58 -27 -22 -36 -37 -36 -60 0 -35 -13 -35 170 3 58 12 115 23 128 25 13 3 20
8 17 13 -13 22 29 83 92 134 247 198 328 231 476 192 89 -23 227 -101 227
-128 0 -4 -15 -32 -32 -61 -18 -28 -38 -61 -44 -72 -10 -16 -30 -21 -155 -31
-79 -7 -234 -17 -344 -23 -109 -6 -202 -13 -205 -17 -3 -3 186 -3 420 0 291 4
417 2 400 -5 -14 -5 -104 -12 -200 -14 -96 -3 -272 -9 -390 -14 -118 -4 -227
-6 -242 -3 -16 3 -28 1 -28 -3 0 -5 -30 -10 -68 -11 -77 -3 -201 -28 -251 -51
-21 -9 -36 -12 -38 -6 -7 22 -262 -18 -408 -63 -27 -9 -63 -25 -80 -38 -16
-12 -43 -25 -59 -29 -56 -14 -166 -106 -166 -139 0 -10 -4 -15 -10 -12 -5 3
-10 -1 -10 -10 0 -8 -5 -24 -12 -35 -14 -22 -12 -25 20 -34 19 -6 22 -4 22 18
0 32 20 35 21 4 0 -13 3 -17 6 -10 5 14 33 17 33 2 0 -5 -7 -13 -15 -18 -13
-7 -12 -11 7 -29 13 -12 39 -25 58 -30 51 -13 47 -39 -7 -35 -41 2 -124 -26
-138 -47 -3 -6 -11 -9 -16 -6 -5 4 -2 17 7 30 9 13 12 30 8 36 -4 7 -3 9 4 5
23 -14 20 13 -3 28 -19 13 -26 13 -35 3 -49 -57 -50 -60 -38 -74 10 -12 8 -18
-9 -31 -19 -15 -23 -34 -32 -132 -6 -63 -14 -202 -18 -307 l-6 -193 22 0 c13
0 20 -4 16 -11 -4 -6 -13 -8 -21 -5 -24 9 -27 -21 -5 -53 11 -16 38 -36 60
-44 22 -9 61 -39 88 -68 26 -28 71 -65 100 -81 l52 -30 -26 -22 c-36 -31 -25
-51 39 -73 47 -15 97 -18 438 -19 212 0 540 -6 730 -13 376 -13 1331 -7 1525
10 61 5 178 23 260 39 158 31 598 70 805 71 175 0 311 14 361 36 68 31 125 90
149 153 l21 55 -31 -32 c-17 -18 -39 -33 -49 -33 -19 0 -58 36 -49 45 3 3 11
-1 18 -10 8 -10 17 -12 30 -5 16 9 16 12 -1 62 -10 29 -19 62 -20 73 0 11 -5
2 -10 -20 -5 -22 -12 -51 -15 -65 l-6 -25 -15 29 c-11 21 -13 45 -8 100 3 39
9 79 11 88 3 11 -5 22 -23 32 l-28 16 26 -6 c26 -5 27 -4 30 45 3 35 0 51 -8
51 -7 0 -10 7 -7 15 4 8 10 12 15 9 5 -3 9 -1 9 5 0 5 3 16 6 25 4 11 1 16
-10 16 -9 0 -16 7 -16 15 0 8 9 15 20 15 11 0 20 -7 20 -15 0 -8 4 -15 10 -15
5 0 7 7 4 15 -4 8 -1 15 5 15 6 0 15 15 21 33 l10 32 -4 -38 c-5 -40 9 -42 24
-2 6 15 17 22 34 23 14 0 26 -4 26 -9 0 -12 -31 -41 -66 -61 -24 -14 -28 -22
-26 -48 3 -22 0 -30 -7 -25 -6 3 -9 10 -6 15 9 15 -15 22 -30 10 -10 -8 -13
-21 -8 -38 3 -15 6 -32 6 -39 0 -15 25 -25 39 -17 5 4 8 17 5 30 -3 18 -1 22
8 14 17 -14 45 29 45 69 0 25 4 29 25 27 29 -1 31 -13 10 -43 -9 -13 -12 -29
-8 -40 6 -16 8 -15 14 7 7 25 7 24 10 -5 2 -16 5 17 8 75 11 199 -17 375 -69
430 -69 73 -135 4 -186 -193 -13 -51 -24 -102 -24 -113 0 -16 -7 -23 -30 -26
l-30 -5 0 56 c0 48 34 238 56 309 l7 23 -34 -20 c-41 -23 -124 -38 -133 -22
-4 5 -13 8 -21 5 -8 -4 -35 6 -60 20 -43 26 -55 27 -302 41 -142 8 -275 19
-295 24 -37 9 -111 44 -175 83 -29 17 -45 14 -26 -6 4 -4 8 -34 9 -67 1 -51 0
-57 -12 -42 -19 25 -17 3 2 -27 l16 -25 -21 25 c-11 14 -33 42 -48 63 -40 53
-96 81 -163 81 -31 -1 -69 -8 -87 -18 -33 -16 -90 -73 -107 -104 -5 -10 8 2
28 25 53 60 94 83 152 83 80 0 94 -7 94 -46 0 -33 -1 -34 -38 -34 -84 0 -201
-141 -248 -300 -32 -108 -43 -130 -66 -130 -10 0 -23 -10 -28 -22 l-9 -23 0
22 c-1 29 -29 20 -37 -12 -7 -28 -44 -42 -44 -17 0 10 -13 31 -29 48 -28 30
-30 36 -31 125 -2 86 2 104 39 212 43 124 53 176 23 120 l-17 -33 -12 37 c-10
32 -9 38 12 59 20 20 109 54 142 54 7 0 13 4 13 9 0 5 14 11 30 15 39 7 38 18
-6 51 -19 15 -33 29 -30 32 3 3 -1 18 -10 34 -14 27 -13 29 11 35 14 3 25 13
25 21 0 13 8 14 42 9 49 -8 58 -14 39 -25 -11 -7 67 -23 125 -26 28 -1 46 -29
42 -66 -2 -28 1 -39 12 -42 12 -3 16 5 18 39 1 24 -3 46 -8 49 -24 15 -9 35
24 35 19 0 36 5 38 11 2 7 18 12 36 13 18 0 32 4 32 9 0 4 -4 7 -8 7 -10 0 -6
69 7 116 6 21 7 42 4 47 -3 6 -2 7 4 4 6 -4 10 5 10 21 1 15 4 46 8 70 5 29 4
42 -4 42 -6 0 -11 14 -11 30 0 17 5 30 10 30 6 0 10 7 10 15 0 8 -4 15 -9 15
-15 0 -20 39 -6 50 10 8 15 7 18 -7 3 -10 5 -2 4 17 l-2 35 -112 3 c-61 1
-131 7 -155 12 -38 7 -33 8 39 7 45 0 85 2 88 5 17 17 -372 29 -595 18z m473
-233 c23 -23 49 -52 58 -64 9 -11 22 -22 29 -25 10 -3 8 -25 -9 -99 -13 -51
-24 -100 -27 -107 -2 -9 -15 -5 -45 13 -82 53 -225 63 -306 22 -15 -8 -53 -17
-83 -20 l-55 -6 -92 87 c-50 48 -110 100 -132 115 -23 16 -41 33 -41 38 0 9 5
10 62 14 14 1 33 9 41 17 19 19 300 51 495 56 61 2 63 1 105 -41z m-929 -144
c53 -68 47 -77 -47 -81 -45 -2 -77 1 -77 7 0 18 65 121 76 121 6 0 28 -21 48
-47z m1079 -135 c15 -9 9 -14 -26 -22 -16 -4 -27 -3 -25 1 2 4 11 24 18 43 14
33 15 34 18 10 2 -14 9 -28 15 -32z m-723 18 c0 -11 -19 -15 -25 -6 -3 5 1 10
9 10 9 0 16 -2 16 -4z m-181 -15 c12 -8 10 -11 -10 -15 -53 -13 -73 -11 -77 7
-3 14 4 17 35 17 21 0 45 -4 52 -9z m131 -21 c0 -5 -4 -10 -10 -10 -5 0 -10 5
-10 10 0 6 5 10 10 10 6 0 10 -4 10 -10z m338 -7 c-10 -2 -26 -2 -35 0 -10 3
-2 5 17 5 19 0 27 -2 18 -5z m-373 -43 c-4 -6 -71 -10 -173 -9 -99 1 -157 4
-142 9 38 12 322 12 315 0z m425 0 c0 -5 -5 -10 -11 -10 -5 0 -7 5 -4 10 3 6
8 10 11 10 2 0 4 -4 4 -10z m-280 -10 c0 -5 -2 -10 -4 -10 -3 0 -8 5 -11 10
-3 6 -1 10 4 10 6 0 11 -4 11 -10z m130 -269 c10 -7 -6 -19 -64 -45 -43 -20
-82 -36 -87 -36 -21 0 -5 -27 31 -52 44 -31 49 -43 22 -57 -15 -8 -31 -1 -76
31 -57 41 -58 41 -129 35 -69 -5 -176 -22 -226 -36 -22 -7 -18 -11 43 -39 38
-18 72 -32 77 -32 5 0 9 -4 9 -10 0 -15 -28 -12 -90 10 -49 17 -58 17 -77 4
-24 -15 -71 -18 -90 -6 -9 6 -7 13 10 27 l22 20 -25 3 c-14 1 -61 -3 -105 -11
-44 -7 -88 -12 -98 -9 -33 8 -11 27 44 38 54 11 99 32 99 46 0 5 -5 8 -11 8
-19 0 2 20 38 35 44 18 43 18 43 0 0 -8 9 -15 19 -15 11 0 21 -4 23 -9 2 -6
29 6 60 25 72 44 116 43 48 -1 -25 -16 -47 -30 -49 -32 -19 -13 28 -11 155 8
129 18 162 27 244 65 100 45 116 49 140 35z m587 -3 c5 -7 22 -35 38 -62 l28
-50 -51 45 c-50 42 -60 58 -45 72 10 10 19 8 30 -5z m-112 -139 c128 -28 233
-134 285 -284 31 -90 25 -124 -8 -45 -57 138 -118 210 -216 256 -59 27 -124
31 -185 9 -49 -17 -52 -8 -8 37 36 38 60 43 132 27z m-755 -13 c0 -9 -40 -13
-46 -5 -3 5 6 9 20 9 14 0 26 -2 26 -4z m-97 -33 c-3 -8 -21 -13 -42 -12 -20
1 -28 3 -18 6 9 2 17 8 17 13 0 4 11 7 24 6 14 0 22 -6 19 -13z m1185 5 c-3
-7 -11 -13 -18 -13 -7 0 -15 6 -17 13 -3 7 4 12 17 12 13 0 20 -5 18 -12z
m1042 -39 c0 -5 5 -7 10 -4 6 4 9 1 8 -6 -2 -8 -12 -18 -23 -24 -32 -16 -75
-115 -93 -214 -26 -140 -40 -114 -22 41 6 47 17 99 25 115 8 15 15 33 15 39 0
16 50 64 66 64 8 0 14 -5 14 -11z m-1305 -35 c130 -61 210 -223 209 -424 -1
-198 -74 -352 -203 -428 -39 -23 -58 -27 -121 -27 -61 0 -83 4 -118 25 -24 13
-41 29 -38 37 3 7 -1 10 -9 7 -8 -3 -28 14 -49 42 -29 38 -36 56 -36 92 0 38
2 43 15 32 8 -7 15 -27 15 -44 0 -24 3 -27 10 -16 17 26 62 169 56 178 -3 5
-24 12 -46 16 -22 3 -40 11 -40 16 0 9 26 7 66 -5 26 -8 54 26 54 64 0 49 -20
66 -73 62 -33 -2 -39 1 -30 10 11 11 23 14 67 18 4 1 6 18 2 39 l-5 37 14 -32
c16 -36 44 -43 66 -17 20 24 67 46 74 34 3 -6 13 -10 21 -10 18 0 54 -36 54
-54 0 -15 38 -86 46 -86 2 0 12 8 22 18 10 9 46 40 80 67 57 46 62 53 56 80
-3 17 -10 34 -14 39 -10 11 -151 -42 -166 -62 -9 -13 -12 -11 -17 9 -3 13 -2
42 3 64 l9 40 -2 -40 c-2 -52 13 -55 92 -15 59 30 78 58 50 75 -6 4 -8 14 -5
22 3 8 2 12 -2 9 -5 -3 -28 15 -52 39 -24 24 -47 42 -51 39 -4 -2 -12 4 -18
13 -6 10 -11 14 -11 10 0 -4 -9 -3 -19 3 -16 8 -22 6 -30 -7 -9 -16 -10 -16
-11 3 0 20 -3 20 -50 13 -53 -8 -120 -36 -120 -50 0 -16 41 -84 61 -101 10 -9
19 -23 19 -32 0 -23 28 -20 35 5 4 11 9 19 11 17 6 -6 -20 -72 -31 -80 -5 -4
-16 -8 -24 -8 -10 0 -11 3 -2 14 16 18 3 46 -21 46 -15 0 -18 5 -13 19 8 27
-41 105 -61 97 -12 -5 -14 -1 -8 17 27 89 175 125 289 71z m1352 -56 c13 -12
23 -29 23 -37 -1 -14 -2 -13 -11 2 -5 9 -16 17 -24 17 -7 0 -15 5 -17 11 -6
19 -58 -33 -67 -68 -7 -25 -6 -33 6 -37 17 -7 14 -47 -4 -54 -8 -2 -13 6 -14
20 0 17 -4 13 -15 -17 l-14 -40 5 45 c7 69 23 116 51 150 31 36 50 38 81 8z
m-1446 -25 c-12 -20 -14 -14 -5 12 4 9 9 14 11 11 3 -2 0 -13 -6 -23z m86 -25
c-3 -8 -6 -5 -6 6 -1 11 2 17 5 13 3 -3 4 -12 1 -19z m1317 -3 c-4 -8 -8 -15
-10 -15 -2 0 -4 7 -4 15 0 8 4 15 10 15 5 0 7 -7 4 -15z m-1552 -89 l17 -34
-30 -4 c-27 -4 -32 -1 -45 30 -18 44 -19 42 14 42 22 0 32 -7 44 -34z m333 -6
c-3 -5 -11 -10 -16 -10 -6 0 -7 5 -4 10 3 6 11 10 16 10 6 0 7 -4 4 -10z
m-405 -90 c0 -5 -2 -10 -4 -10 -3 0 -8 5 -11 10 -3 6 -1 10 4 10 6 0 11 -4 11
-10z m557 -12 c-3 -8 -6 -5 -6 6 -1 11 2 17 5 13 3 -3 4 -12 1 -19z m-2797 2
c-43 -30 -50 -31 -50 -10 0 16 6 20 33 20 25 0 29 -3 17 -10z m700 -10 c0 -16
-7 -20 -35 -21 -19 -1 -49 -2 -65 -3 -31 -1 -50 -18 -50 -46 0 -9 -10 -16 -25
-18 -26 -2 -32 7 -14 25 5 5 7 22 3 37 -4 19 -13 26 -30 26 -17 0 -22 -4 -18
-15 4 -8 1 -15 -5 -15 -6 0 -11 -7 -11 -15 0 -8 5 -15 11 -15 5 0 7 -5 3 -11
-9 -16 -37 38 -30 57 3 8 -1 14 -10 14 -9 0 -26 -23 -39 -52 -14 -29 -22 -41
-19 -25 7 33 -10 57 -41 57 -25 0 -38 -21 -28 -47 4 -11 3 -14 -5 -9 -7 4 -12
15 -12 26 0 19 -25 34 -41 24 -5 -3 -9 -12 -9 -20 0 -8 -5 -14 -11 -14 -5 0
-8 4 -4 9 10 17 -33 33 -55 21 -23 -12 -28 -62 -7 -77 17 -14 397 -14 397 -1
0 6 6 6 14 -2 8 -6 25 -11 38 -10 36 3 48 1 48 -10 0 -6 -97 -10 -270 -10
l-270 0 0 59 c0 56 -2 60 -32 80 l-33 21 328 0 c320 0 327 0 327 -20z m1985
10 c-3 -5 -10 -10 -16 -10 -5 0 -9 5 -9 10 0 6 7 10 16 10 8 0 12 -4 9 -10z
m1065 -14 c0 -3 -4 -8 -10 -11 -5 -3 -10 -1 -10 4 0 6 5 11 10 11 6 0 10 -2
10 -4z m30 -40 c0 -3 -4 -8 -10 -11 -5 -3 -10 -1 -10 4 0 6 5 11 10 11 6 0 10
-2 10 -4z m-3770 -31 c-7 -9 -15 -13 -19 -10 -3 3 1 10 9 15 21 14 24 12 10
-5z m635 6 c-7 -12 -54 -20 -60 -11 -7 12 3 17 35 18 17 0 28 -3 25 -7z m1221
-16 c-11 -8 -17 -18 -13 -21 4 -4 13 -1 22 6 13 11 14 9 9 -17 -4 -22 -2 -32
10 -36 16 -6 62 -87 49 -87 -5 0 -1 -4 7 -10 23 -14 9 -17 -38 -8 -35 8 -45
15 -57 44 -8 19 -16 42 -17 52 -2 9 -7 20 -13 24 -6 4 -2 8 8 8 21 0 23 16 2
24 -8 3 -15 0 -15 -6 0 -7 -6 -3 -14 8 -13 17 -12 20 7 26 12 3 33 6 47 7 24
0 24 0 6 -14z m-1806 -5 c-8 -5 -24 -9 -35 -9 -16 1 -16 2 5 9 35 11 48 11 30
0z m-617 -80 c-4 -16 -8 -18 -20 -9 -11 10 -11 14 -1 20 21 14 26 10 21 -11z
m4257 -19 c12 -23 5 -29 -33 -29 -27 0 -54 28 -40 42 14 14 63 5 73 -13z
m-2004 1 c-7 -12 -66 -13 -66 -1 0 5 16 9 36 9 19 0 33 -4 30 -8z m1869 -11
c11 -19 -62 -34 -270 -56 -77 -8 -196 -22 -265 -30 -229 -29 -234 -29 -226
-17 4 7 22 13 39 13 l32 2 -35 7 -35 6 35 7 c19 4 130 18 245 33 116 14 233
30 260 34 73 11 213 12 220 1z m-1473 -152 c29 -15 6 -29 -49 -29 -45 0 -55
12 -25 29 23 14 49 14 74 0z m-2271 -64 c-1 -15 -24 -12 -29 3 -3 9 2 13 12
10 10 -1 17 -7 17 -13z m879 1 c24 -5 -23 -13 -238 -41 -112 -15 -205 -25
-208 -22 -8 8 23 64 38 69 13 5 382 -1 408 -6z m1675 -176 c3 -6 -1 -7 -9 -4
-18 7 -21 14 -7 14 6 0 13 -4 16 -10z"/>
<path d="M3085 2025 c-24 -11 -26 -14 -9 -14 11 -1 29 6 40 14 24 18 8 18 -31
0z"/>
<path d="M4123 1559 c-32 -15 -43 -26 -43 -42 l0 -21 16 22 c31 45 82 19 94
-48 10 -53 5 -69 -27 -81 -13 -5 -21 -14 -18 -19 4 -6 11 -8 16 -5 5 3 6 -1 2
-10 -4 -13 -1 -16 13 -13 11 2 18 11 16 20 -1 8 5 21 13 28 8 7 15 17 15 23 0
6 8 19 17 29 14 16 15 22 5 39 -7 11 -22 38 -34 60 -23 44 -27 45 -85 18z"/>
<path d="M4382 1528 c-39 -29 -71 -58 -71 -63 -1 -14 80 -76 90 -69 5 3 9 26
9 52 l1 47 24 -28 25 -28 0 70 c0 39 -1 71 -3 71 -2 0 -35 -24 -75 -52z"/>
<path d="M4045 1540 c3 -5 8 -10 11 -10 2 0 4 5 4 10 0 6 -5 10 -11 10 -5 0
-7 -4 -4 -10z"/>
<path d="M4110 1428 c0 -14 30 -22 41 -11 7 7 2 12 -15 15 -14 3 -26 1 -26 -4z"/>
<path d="M4273 1429 c-29 -11 -40 -55 -22 -88 8 -14 37 -35 67 -48 l53 -23 12
29 c10 24 16 27 30 20 14 -8 15 -14 6 -30 -5 -11 -8 -25 -6 -32 2 -7 11 5 20
26 l16 38 -35 31 c-84 74 -111 89 -141 77z"/>
<path d="M4075 1390 c3 -5 11 -10 16 -10 6 0 7 5 4 10 -3 6 -11 10 -16 10 -6
0 -7 -4 -4 -10z"/>
<path d="M4030 1328 c-11 -18 -23 -49 -26 -68 -4 -19 -11 -44 -17 -54 -7 -15
-5 -23 11 -36 11 -9 22 -25 24 -36 2 -13 16 4 47 60 34 62 42 85 37 109 -13
64 -46 74 -76 25z"/>
<path d="M4160 1294 c-14 -36 -13 -52 11 -121 15 -46 25 -62 42 -65 19 -4 22
1 24 26 1 17 -5 48 -13 69 -18 48 -18 65 1 69 14 3 14 5 0 26 -22 30 -53 28
-65 -4z"/>
<path d="M4256 1291 c-6 -9 12 -132 20 -140 7 -7 53 40 60 61 6 19 39 25 49 9
3 -5 -18 -37 -46 -71 -29 -35 -42 -57 -31 -51 25 13 92 93 92 110 0 6 8 11 18
12 9 0 -10 14 -43 29 -83 40 -114 50 -119 41z"/>
<path d="M4083 1187 c-36 -60 -32 -74 29 -83 36 -6 65 -33 51 -48 -3 -3 1 -6
10 -6 9 0 21 -8 27 -17 10 -16 11 -16 5 2 -48 139 -72 199 -80 201 -5 2 -24
-20 -42 -49z"/>
<path d="M4236 1071 c-3 -5 5 -11 19 -13 30 -6 32 -2 6 12 -11 6 -22 6 -25 1z"/>
<path d="M4410 2954 c0 -8 5 -24 11 -35 8 -16 13 -18 25 -8 8 6 14 9 14 6 0
-3 12 -2 28 3 16 6 39 6 57 1 28 -9 27 -9 -18 -10 l-49 -1 40 -41 c28 -30 50
-43 83 -50 61 -11 101 -11 94 1 -12 20 17 9 70 -26 54 -36 132 -130 182 -219
22 -40 23 -48 12 -80 -7 -19 -17 -35 -22 -35 -4 0 -5 5 -2 10 3 6 0 10 -7 11
-7 0 -4 4 7 9 19 8 19 9 -3 9 -19 1 -22 -3 -17 -19 5 -16 2 -20 -16 -20 -44 0
-7 -14 42 -16 31 -1 57 -8 67 -18 19 -18 19 -18 -98 -17 -144 2 -241 13 -257
30 -15 15 -15 16 7 19 14 3 29 -3 37 -14 9 -12 16 -14 25 -7 7 6 42 10 78 10
39 0 66 5 68 12 2 6 10 18 18 25 19 20 19 76 -1 76 -8 0 -15 -4 -15 -9 0 -5
-11 -4 -25 2 -14 7 -25 15 -25 18 0 13 38 17 50 5 8 -8 10 -7 5 7 -7 17 -17
21 -43 18 -7 -1 -11 4 -10 10 5 23 -171 71 -252 71 -65 -1 -73 3 -58 28 10 15
10 22 0 32 -6 6 -12 20 -12 30 0 12 -13 24 -32 33 -32 14 -32 14 -7 15 36 0
40 7 21 41 -20 35 -40 37 -46 7 -3 -13 -10 -46 -16 -75 -12 -52 -7 -79 11 -68
5 4 9 -1 9 -9 0 -9 5 -16 12 -16 9 0 9 -3 0 -12 -9 -9 -17 -7 -33 8 l-21 19
14 -35 c8 -19 25 -51 36 -70 28 -46 28 -50 -7 -50 -34 0 -46 -22 -35 -64 5
-22 3 -26 -16 -26 -19 0 -20 -2 -10 -15 10 -12 8 -16 -11 -24 -14 -5 -31 -5
-41 0 -23 12 -41 11 -33 -2 4 -6 10 -8 13 -5 3 3 11 1 19 -5 11 -10 9 -16 -12
-35 -14 -13 -25 -34 -25 -48 0 -21 11 -31 62 -57 39 -20 64 -27 66 -20 2 6 18
11 37 11 38 0 52 14 61 60 5 24 15 36 36 44 18 7 26 16 23 25 -4 11 4 12 47 6
29 -4 150 -9 268 -11 179 -2 212 -1 198 10 -10 7 -18 17 -18 21 0 4 -25 42
-55 85 -55 78 -65 97 -43 84 7 -4 8 -3 4 5 -4 6 -12 8 -18 5 -8 -5 -9 -1 -5
10 4 9 3 15 -2 12 -10 -6 -33 18 -51 53 l-12 24 31 -22 c17 -13 29 -27 25 -32
-3 -5 -2 -9 3 -8 21 4 34 -2 27 -13 -4 -6 -3 -8 4 -4 23 14 102 -128 102 -184
0 -11 5 -20 10 -20 23 0 20 32 -10 103 -22 54 -44 86 -78 118 -97 91 -247 193
-342 235 -36 15 -78 38 -93 51 -16 13 -32 23 -37 23 -5 0 -17 3 -27 6 -15 5
-15 4 -3 -5 12 -8 7 -11 -23 -11 -24 0 -40 5 -43 15 -8 20 -24 19 -24 -1z"/>
<path d="M4995 2580 c-3 -5 -1 -10 4 -10 6 0 11 5 11 10 0 6 -2 10 -4 10 -3 0
-8 -4 -11 -10z"/>
<path d="M3970 2390 c-14 -4 -20 -8 -14 -9 6 -1 28 -17 48 -36 39 -37 69 -43
98 -21 13 9 15 20 9 42 -7 27 -11 29 -62 31 -30 1 -65 -2 -79 -7z"/>
<path d="M5275 2360 c3 -5 10 -10 16 -10 5 0 9 5 9 10 0 6 -7 10 -16 10 -8 0
-12 -4 -9 -10z"/>
<path d="M5318 2353 c7 -3 16 -2 19 1 4 3 -2 6 -13 5 -11 0 -14 -3 -6 -6z"/>
<path d="M4550 2340 c0 -5 6 -10 14 -10 8 0 21 -3 30 -6 11 -4 16 -1 16 10 0
11 -9 16 -30 16 -16 0 -30 -4 -30 -10z"/>
<path d="M5351 2346 c11 -12 69 -25 69 -15 0 5 -6 9 -12 9 -7 0 -24 3 -38 7
-14 3 -22 3 -19 -1z"/>
<path d="M5133 2293 c9 -2 23 -2 30 0 6 3 -1 5 -18 5 -16 0 -22 -2 -12 -5z"/>
<path d="M5461 2273 c-1 -18 19 -67 25 -61 3 3 -2 21 -10 39 -8 19 -15 29 -15
22z"/>
<path d="M5130 2260 c0 -5 9 -10 19 -10 11 0 27 -3 35 -6 12 -5 15 -2 10 10
-7 17 -64 23 -64 6z"/>
<path d="M4335 2239 c-8 -23 -1 -34 14 -24 13 8 15 45 2 45 -5 0 -13 -9 -16
-21z"/>
<path d="M5175 2183 c6 -6 24 -14 40 -17 20 -5 27 -4 20 3 -5 5 -23 13 -40 17
-20 4 -27 3 -20 -3z"/>
<path d="M5498 2183 c-10 -2 -18 -8 -18 -13 0 -23 -31 -38 -61 -30 -23 7 -37
5 -55 -7 -13 -8 -24 -16 -24 -17 0 0 24 -1 53 0 42 0 61 6 90 28 40 31 40 31
100 -23 39 -36 34 -6 -7 35 -33 33 -43 36 -78 27z"/>
<path d="M5108 2173 c7 -3 16 -2 19 1 4 3 -2 6 -13 5 -11 0 -14 -3 -6 -6z"/>
<path d="M5023 2163 c15 -2 37 -2 50 0 12 2 0 4 -28 4 -27 0 -38 -2 -22 -4z"/>
<path d="M5176 2132 c-3 -5 11 -16 30 -25 43 -21 43 -21 37 2 -6 24 -56 41
-67 23z"/>
<path d="M3870 1786 c0 -13 -3 -33 -6 -43 -4 -14 -4 -15 4 -3 15 25 23 70 12
70 -5 0 -10 -11 -10 -24z"/>
<path d="M5650 1515 c-14 -17 -10 -47 8 -53 8 -2 12 8 12 32 0 40 -2 42 -20
21z"/>
<path d="M5617 1464 c-14 -14 -7 -72 12 -95 18 -22 20 -23 27 -6 3 10 1 30 -7
45 -7 15 -16 35 -19 45 -3 10 -8 15 -13 11z"/>
<path d="M5547 1403 c-8 -13 -13 -151 -5 -158 9 -9 26 128 18 149 -4 12 -9 15
-13 9z"/>
<path d="M5672 1391 c2 -7 7 -12 11 -12 12 1 9 15 -3 20 -7 2 -11 -2 -8 -8z"/>
<path d="M5580 1361 c0 -12 6 -21 16 -21 9 0 14 7 12 17 -5 25 -28 28 -28 4z"/>
<path d="M5620 1315 c0 -36 13 -47 24 -20 3 8 12 12 21 9 22 -9 18 5 -7 27
-32 26 -38 24 -38 -16z"/>
</g>
</svg>
