<?xml version="1.0" encoding="UTF-8"?>
<svg id="Layer_2" data-name="Layer 2" xmlns="http://www.w3.org/2000/svg" viewBox="0 0 426.2 426.2">
  <defs>
    <style>
      .cls-1 {
        fill: #21bbee;
      }

      .cls-2 {
        fill: #54646f;
      }

      .cls-3 {
        fill: #192743;
      }

      .cls-4 {
        fill: none;
        opacity: 0;
        stroke: #1d1d1b;
        stroke-miterlimit: 10;
      }
    </style>
  </defs>
  <g id="Layer_1-2" data-name="Layer 1">
    <g>
      <circle class="cls-4" cx="213.1" cy="213.1" r="212.6"/>
      <g>
        <path class="cls-3" d="m97.27,247.02c-.37,12.9-.72,25.15-1.08,37.39-.04,1.31-.06,2.62-.23,3.91-.76,5.94-7.15,8.76-12.05,5.29-3.34-2.36-4.96-5.64-4.91-9.79.29-21.61.63-43.22.75-64.83.04-7.04-.16-14,2.13-20.85,5.89-17.61,22.68-29.81,40.45-29.1,18.83.75,34.67,13.62,39.26,31.88,6.16,24.54-8.94,48.64-33.45,53.1-9.87,1.79-19.18-.15-27.83-5.25-.84-.49-1.68-.97-3.05-1.75Zm49.63-35.1c.03-17.1-14.74-29.97-30.51-26.57-11.01,2.37-19.52,12.04-20.5,23.27-1.1,12.75,5.21,23.9,16.05,28.36,16.9,6.94,34.92-5.98,34.96-25.05Z"/>
        <path class="cls-2" d="m372.64,178.69c0-8.02-.02-15.43,0-22.84.02-4.72-.07-9.45.21-14.16.25-4.19,1.84-7.96,5.94-9.75,6.43-2.8,12.6,1.46,12.62,8.56.05,20.49.04,40.98.07,61.47,0,5.41.64,10.88.06,16.22-2.2,20.33-20,35.93-40.4,35.82-20.49-.11-37.99-15.45-40.33-35.61-1.77-15.21,3.51-27.81,15.62-37.03,12.5-9.52,26.4-10.98,41.01-5.08,1.47.59,2.89,1.33,5.19,2.39Zm-21.51,7.49c-15.27.09-27.18,12.2-27.11,27.59.07,14.95,12.36,26.94,27.54,26.86,14.95-.08,26.88-12.37,26.78-27.6-.1-14.9-12.29-26.93-27.22-26.85Z"/>
        <path class="cls-2" d="m258.46,178.88c.13-.61.24-1.07.33-1.54,1.11-5.54,4.88-8.84,9.6-8.41,5.76.53,9.56,4.57,9.61,10.36.11,11.55.27,23.11.21,34.66-.1,20.58-14.57,37.82-34.48,41.28-20.46,3.56-39.9-7.66-47.02-27.15-8.59-23.5,6.46-49.33,31.71-54.27,9.39-1.84,18.38-.43,26.95,3.79.81.4,1.61.81,2.42,1.21.08.04.19.02.68.07Zm-22.03,63.39c15.34-.04,27.81-12.51,27.81-27.81,0-15.45-12.53-27.78-28.15-27.71-15.43.07-27.91,12.51-27.82,27.74.09,15.5,12.58,27.82,28.16,27.78Z"/>
        <path class="cls-3" d="m34.72,213.22c0-11.24-.05-22.48.02-33.73.04-5.54,4.03-9.28,9.4-9.04,4.07.18,6.95,2.47,7.23,6.58.37,5.49.3,11.02.27,16.54-.07,17.57-.21,35.13-.33,52.7-.03,3.91-5,8.18-9.43,8.15-4.21-.03-7.47-3.54-7.47-8.06,0-11.04,0-22.08,0-33.13h.31Z"/>
        <path class="cls-1" d="m51.97,142.01c0-.3,0-.6,0-.9.19-8.23.2-8.36,8.53-7.72,3.54.27,7.25.66,10.51,1.94,6,2.36,8.88,8.74,7.39,14.82-1.48,6.02-7.31,10.24-13.74,9.95-6.49-.3-11.89-4.95-12.67-11.17-.29-2.27-.05-4.6-.05-6.91h.02Z"/>
      </g>
    </g>
  </g>
</svg>